<mxfile host="app.diagrams.net" modified="2023-08-10T10:19:11.142Z" agent="Mozilla/5.0 (Macintosh; Intel Mac OS X 10_15_7) AppleWebKit/537.36 (KHTML, like Gecko) Chrome/114.0.0.0 Safari/537.36" etag="Cw-pjop5t4MAGvzYkTm4" version="21.6.7" type="github">
  <diagram name="Page-1" id="ia0Yke2cbuVXJMjOJueS">
    <mxGraphModel dx="2206" dy="1186" grid="1" gridSize="10" guides="1" tooltips="1" connect="1" arrows="1" fold="1" page="1" pageScale="1" pageWidth="827" pageHeight="1169" math="0" shadow="0">
      <root>
        <mxCell id="0" />
        <mxCell id="1" parent="0" />
        <mxCell id="1bsXT7slva7vUgLQAHEb-43" value="" style="group" vertex="1" connectable="0" parent="1">
          <mxGeometry x="550" y="150" width="480" height="472.5" as="geometry" />
        </mxCell>
        <mxCell id="1bsXT7slva7vUgLQAHEb-40" value="" style="group" vertex="1" connectable="0" parent="1bsXT7slva7vUgLQAHEb-43">
          <mxGeometry y="30" width="480" height="442.5" as="geometry" />
        </mxCell>
        <mxCell id="1bsXT7slva7vUgLQAHEb-39" value="" style="rounded=0;whiteSpace=wrap;html=1;" vertex="1" parent="1bsXT7slva7vUgLQAHEb-40">
          <mxGeometry width="480" height="442.5" as="geometry" />
        </mxCell>
        <mxCell id="1bsXT7slva7vUgLQAHEb-25" style="edgeStyle=orthogonalEdgeStyle;rounded=0;orthogonalLoop=1;jettySize=auto;html=1;exitX=0;exitY=0.5;exitDx=0;exitDy=0;entryX=1;entryY=0.5;entryDx=0;entryDy=0;startArrow=classic;startFill=1;" edge="1" parent="1bsXT7slva7vUgLQAHEb-40" source="1bsXT7slva7vUgLQAHEb-18" target="1bsXT7slva7vUgLQAHEb-4">
          <mxGeometry relative="1" as="geometry" />
        </mxCell>
        <mxCell id="1bsXT7slva7vUgLQAHEb-18" value="Outline" style="rounded=1;whiteSpace=wrap;html=1;" vertex="1" parent="1bsXT7slva7vUgLQAHEb-40">
          <mxGeometry x="180" y="162.5" width="120" height="60" as="geometry" />
        </mxCell>
        <mxCell id="1bsXT7slva7vUgLQAHEb-28" style="edgeStyle=orthogonalEdgeStyle;rounded=0;orthogonalLoop=1;jettySize=auto;html=1;exitX=0;exitY=0.5;exitDx=0;exitDy=0;entryX=1;entryY=0.5;entryDx=0;entryDy=0;startArrow=classic;startFill=1;" edge="1" parent="1bsXT7slva7vUgLQAHEb-40" source="1bsXT7slva7vUgLQAHEb-19" target="1bsXT7slva7vUgLQAHEb-4">
          <mxGeometry relative="1" as="geometry" />
        </mxCell>
        <mxCell id="1bsXT7slva7vUgLQAHEb-19" value="Vaultwarden" style="rounded=1;whiteSpace=wrap;html=1;" vertex="1" parent="1bsXT7slva7vUgLQAHEb-40">
          <mxGeometry x="180" y="262.5" width="120" height="60" as="geometry" />
        </mxCell>
        <mxCell id="1bsXT7slva7vUgLQAHEb-32" style="edgeStyle=orthogonalEdgeStyle;rounded=0;orthogonalLoop=1;jettySize=auto;html=1;exitX=0;exitY=0.5;exitDx=0;exitDy=0;exitPerimeter=0;entryX=1;entryY=0.5;entryDx=0;entryDy=0;" edge="1" parent="1bsXT7slva7vUgLQAHEb-40" source="1bsXT7slva7vUgLQAHEb-29" target="1bsXT7slva7vUgLQAHEb-18">
          <mxGeometry relative="1" as="geometry" />
        </mxCell>
        <mxCell id="1bsXT7slva7vUgLQAHEb-29" value="Redis" style="shape=cylinder3;whiteSpace=wrap;html=1;boundedLbl=1;backgroundOutline=1;size=15;" vertex="1" parent="1bsXT7slva7vUgLQAHEb-40">
          <mxGeometry x="380" y="152.5" width="60" height="80" as="geometry" />
        </mxCell>
        <mxCell id="1bsXT7slva7vUgLQAHEb-33" style="edgeStyle=orthogonalEdgeStyle;rounded=0;orthogonalLoop=1;jettySize=auto;html=1;exitX=0;exitY=0.5;exitDx=0;exitDy=0;exitPerimeter=0;entryX=1;entryY=0.5;entryDx=0;entryDy=0;" edge="1" parent="1bsXT7slva7vUgLQAHEb-40" source="1bsXT7slva7vUgLQAHEb-30" target="1bsXT7slva7vUgLQAHEb-18">
          <mxGeometry relative="1" as="geometry" />
        </mxCell>
        <mxCell id="1bsXT7slva7vUgLQAHEb-30" value="Postgres" style="shape=cylinder3;whiteSpace=wrap;html=1;boundedLbl=1;backgroundOutline=1;size=15;" vertex="1" parent="1bsXT7slva7vUgLQAHEb-40">
          <mxGeometry x="380" y="252.5" width="60" height="80" as="geometry" />
        </mxCell>
        <mxCell id="1bsXT7slva7vUgLQAHEb-35" style="edgeStyle=orthogonalEdgeStyle;rounded=0;orthogonalLoop=1;jettySize=auto;html=1;exitX=0;exitY=0.5;exitDx=0;exitDy=0;exitPerimeter=0;entryX=1;entryY=0.5;entryDx=0;entryDy=0;" edge="1" parent="1bsXT7slva7vUgLQAHEb-40" source="1bsXT7slva7vUgLQAHEb-31" target="1bsXT7slva7vUgLQAHEb-18">
          <mxGeometry relative="1" as="geometry" />
        </mxCell>
        <mxCell id="1bsXT7slva7vUgLQAHEb-31" value="Minio" style="shape=cylinder3;whiteSpace=wrap;html=1;boundedLbl=1;backgroundOutline=1;size=15;" vertex="1" parent="1bsXT7slva7vUgLQAHEb-40">
          <mxGeometry x="380" y="352.5" width="60" height="80" as="geometry" />
        </mxCell>
        <mxCell id="1bsXT7slva7vUgLQAHEb-37" value="Restic&lt;br&gt;Connects to all docker volumes" style="rounded=1;whiteSpace=wrap;html=1;" vertex="1" parent="1bsXT7slva7vUgLQAHEb-40">
          <mxGeometry x="180" y="22.5" width="120" height="60" as="geometry" />
        </mxCell>
        <mxCell id="1bsXT7slva7vUgLQAHEb-4" value="Nginx" style="ellipse;whiteSpace=wrap;html=1;aspect=fixed;" vertex="1" parent="1bsXT7slva7vUgLQAHEb-40">
          <mxGeometry x="20" y="152.5" width="80" height="80" as="geometry" />
        </mxCell>
        <mxCell id="1bsXT7slva7vUgLQAHEb-41" value="VPS" style="text;html=1;strokeColor=none;fillColor=none;align=left;verticalAlign=middle;whiteSpace=wrap;rounded=0;" vertex="1" parent="1bsXT7slva7vUgLQAHEb-40">
          <mxGeometry x="10" y="412.5" width="60" height="30" as="geometry" />
        </mxCell>
        <mxCell id="1bsXT7slva7vUgLQAHEb-42" value="IP: 194.163.173.78" style="text;html=1;strokeColor=none;fillColor=none;align=right;verticalAlign=middle;whiteSpace=wrap;rounded=0;" vertex="1" parent="1bsXT7slva7vUgLQAHEb-43">
          <mxGeometry x="370" width="110" height="30" as="geometry" />
        </mxCell>
        <mxCell id="1bsXT7slva7vUgLQAHEb-36" value="" style="group" vertex="1" connectable="0" parent="1">
          <mxGeometry x="550" y="650" width="360" height="280" as="geometry" />
        </mxCell>
        <mxCell id="1bsXT7slva7vUgLQAHEb-23" value="" style="group" vertex="1" connectable="0" parent="1bsXT7slva7vUgLQAHEb-36">
          <mxGeometry y="30" width="360" height="250" as="geometry" />
        </mxCell>
        <mxCell id="1bsXT7slva7vUgLQAHEb-22" value="" style="group" vertex="1" connectable="0" parent="1bsXT7slva7vUgLQAHEb-23">
          <mxGeometry width="360" height="250" as="geometry" />
        </mxCell>
        <mxCell id="1bsXT7slva7vUgLQAHEb-20" value="" style="rounded=0;whiteSpace=wrap;html=1;" vertex="1" parent="1bsXT7slva7vUgLQAHEb-22">
          <mxGeometry width="360" height="250" as="geometry" />
        </mxCell>
        <mxCell id="1bsXT7slva7vUgLQAHEb-21" value="Web Packet" style="text;html=1;strokeColor=none;fillColor=none;align=left;verticalAlign=middle;whiteSpace=wrap;rounded=0;" vertex="1" parent="1bsXT7slva7vUgLQAHEb-22">
          <mxGeometry x="4" y="220" width="120" height="30" as="geometry" />
        </mxCell>
        <mxCell id="1bsXT7slva7vUgLQAHEb-7" value="Mailserver" style="rounded=1;whiteSpace=wrap;html=1;" vertex="1" parent="1bsXT7slva7vUgLQAHEb-23">
          <mxGeometry x="190" y="40" width="120" height="60" as="geometry" />
        </mxCell>
        <mxCell id="1bsXT7slva7vUgLQAHEb-14" value="CPanel" style="ellipse;whiteSpace=wrap;html=1;aspect=fixed;" vertex="1" parent="1bsXT7slva7vUgLQAHEb-23">
          <mxGeometry x="44" y="30" width="80" height="80" as="geometry" />
        </mxCell>
        <mxCell id="1bsXT7slva7vUgLQAHEb-16" value="ggmunich.de (Aktuell)" style="rounded=1;whiteSpace=wrap;html=1;" vertex="1" parent="1bsXT7slva7vUgLQAHEb-23">
          <mxGeometry x="190" y="140" width="120" height="60" as="geometry" />
        </mxCell>
        <mxCell id="1bsXT7slva7vUgLQAHEb-15" value="" style="edgeStyle=orthogonalEdgeStyle;rounded=0;orthogonalLoop=1;jettySize=auto;html=1;startArrow=classic;startFill=1;" edge="1" parent="1bsXT7slva7vUgLQAHEb-23" source="1bsXT7slva7vUgLQAHEb-7" target="1bsXT7slva7vUgLQAHEb-14">
          <mxGeometry relative="1" as="geometry" />
        </mxCell>
        <mxCell id="1bsXT7slva7vUgLQAHEb-17" style="edgeStyle=orthogonalEdgeStyle;rounded=0;orthogonalLoop=1;jettySize=auto;html=1;exitX=0;exitY=0.5;exitDx=0;exitDy=0;entryX=1;entryY=0.5;entryDx=0;entryDy=0;" edge="1" parent="1bsXT7slva7vUgLQAHEb-23" source="1bsXT7slva7vUgLQAHEb-16" target="1bsXT7slva7vUgLQAHEb-14">
          <mxGeometry relative="1" as="geometry" />
        </mxCell>
        <mxCell id="1bsXT7slva7vUgLQAHEb-24" value="IP: 213.136.93.170" style="text;html=1;strokeColor=none;fillColor=none;align=right;verticalAlign=middle;whiteSpace=wrap;rounded=0;" vertex="1" parent="1bsXT7slva7vUgLQAHEb-36">
          <mxGeometry x="250" width="110" height="30" as="geometry" />
        </mxCell>
        <mxCell id="1bsXT7slva7vUgLQAHEb-1" value="Actor" style="shape=umlActor;verticalLabelPosition=bottom;verticalAlign=top;html=1;outlineConnect=0;" vertex="1" parent="1">
          <mxGeometry x="24" y="555" width="30" height="60" as="geometry" />
        </mxCell>
        <mxCell id="1bsXT7slva7vUgLQAHEb-3" value="" style="edgeStyle=orthogonalEdgeStyle;rounded=0;orthogonalLoop=1;jettySize=auto;html=1;startArrow=classic;startFill=1;" edge="1" parent="1" source="1bsXT7slva7vUgLQAHEb-2" target="1bsXT7slva7vUgLQAHEb-1">
          <mxGeometry relative="1" as="geometry" />
        </mxCell>
        <mxCell id="1bsXT7slva7vUgLQAHEb-2" value="Internet" style="ellipse;shape=cloud;whiteSpace=wrap;html=1;" vertex="1" parent="1">
          <mxGeometry x="134" y="545" width="120" height="80" as="geometry" />
        </mxCell>
        <mxCell id="1bsXT7slva7vUgLQAHEb-5" value="" style="edgeStyle=orthogonalEdgeStyle;rounded=0;orthogonalLoop=1;jettySize=auto;html=1;startArrow=classic;startFill=1;entryX=0.5;entryY=0;entryDx=0;entryDy=0;entryPerimeter=0;" edge="1" parent="1" source="1bsXT7slva7vUgLQAHEb-4" target="1bsXT7slva7vUgLQAHEb-10">
          <mxGeometry relative="1" as="geometry" />
        </mxCell>
        <mxCell id="1bsXT7slva7vUgLQAHEb-11" value="" style="edgeStyle=orthogonalEdgeStyle;rounded=0;orthogonalLoop=1;jettySize=auto;html=1;startArrow=classic;startFill=1;" edge="1" parent="1" source="1bsXT7slva7vUgLQAHEb-10" target="1bsXT7slva7vUgLQAHEb-2">
          <mxGeometry relative="1" as="geometry" />
        </mxCell>
        <mxCell id="1bsXT7slva7vUgLQAHEb-10" value="Contabo DNS" style="shape=note;whiteSpace=wrap;html=1;backgroundOutline=1;darkOpacity=0.05;" vertex="1" parent="1">
          <mxGeometry x="334" y="535" width="80" height="100" as="geometry" />
        </mxCell>
        <mxCell id="1bsXT7slva7vUgLQAHEb-13" style="edgeStyle=orthogonalEdgeStyle;rounded=0;orthogonalLoop=1;jettySize=auto;html=1;entryX=0.5;entryY=1;entryDx=0;entryDy=0;entryPerimeter=0;startArrow=classic;startFill=1;" edge="1" parent="1" source="1bsXT7slva7vUgLQAHEb-14" target="1bsXT7slva7vUgLQAHEb-10">
          <mxGeometry relative="1" as="geometry">
            <mxPoint x="460" y="710" as="sourcePoint" />
          </mxGeometry>
        </mxCell>
        <mxCell id="1bsXT7slva7vUgLQAHEb-44" value="" style="edgeStyle=orthogonalEdgeStyle;rounded=0;orthogonalLoop=1;jettySize=auto;html=1;startArrow=classic;startFill=1;" edge="1" parent="1" source="1bsXT7slva7vUgLQAHEb-38" target="1bsXT7slva7vUgLQAHEb-37">
          <mxGeometry relative="1" as="geometry" />
        </mxCell>
        <mxCell id="1bsXT7slva7vUgLQAHEb-38" value="S3 backup bucket" style="shape=cylinder3;whiteSpace=wrap;html=1;boundedLbl=1;backgroundOutline=1;size=15;" vertex="1" parent="1">
          <mxGeometry x="760" y="30" width="60" height="80" as="geometry" />
        </mxCell>
      </root>
    </mxGraphModel>
  </diagram>
</mxfile>
